# xmcd
#
# Track frame offsets: 
#        150
#        12917
#        32117
#        47555
#        66748
#        82159
#        104222
#        123941
#        140041
#        154172
#        171113
#        190580
#
# Disc length: 2763 seconds
#
# Revision: 8
# Processed by: cddbd v1.5.2PL0 Copyright (c) Steve Scherf et al.
# Submitted via: ExactAudioCopyFreeDBPlugin 1.0
#
DISCID=ad0ac90c
DTITLE=Frank Reyes - Dosis De Amor
DYEAR=2005
DGENRE=Bachata
TTITLE0=Se Fue De Mí (Aunque Respiro, No Vivo)
TTITLE1=El Alcohol
TTITLE2=Dosis De Amor
TTITLE3=Es Mentira Tu Amor
TTITLE4=Princesa
TTITLE5=Compadre
TTITLE6=Que Voy A Hacer Sin Tí
TTITLE7=Llévate La Cama Pa´ La Calle (featuring Don Miguelo and Indhira)
TTITLE8=Te Fuiste Sin Decir Nada
TTITLE9=Presumdia
TTITLE10=Tú Me Pides Que Te Olvide
TTITLE11=Lo Que La Vida Te Dá
EXTD=
EXTT0=
EXTT1=
EXTT2=
EXTT3=
EXTT4=
EXTT5=
EXTT6=
EXTT7=
EXTT8=
EXTT9=
EXTT10=
EXTT11=
PLAYORDER=
